<?xml version="1.0" encoding="UTF-8" standalone="no"?>
<!DOCTYPE svg PUBLIC "-//W3C//DTD SVG 1.1//EN" "http://www.w3.org/Graphics/SVG/1.1/DTD/svg11.dtd">
<svg xmlns="http://www.w3.org/2000/svg" version="1.1" viewBox="0.00 0.00 800.00 600.00">
<g stroke-width="2.00" fill="none" stroke-linecap="butt">
<path stroke="#8691a5" vector-effect="non-scaling-stroke" d="
  M 177.16 246.13
  Q 205.86 246.13 206.27 246.17
  A 0.70 0.70 0.0 0 1 206.89 246.87
  L 206.90 257.39
  A 0.62 0.62 0.0 0 1 206.28 258.01
  L 195.31 258.01
  A 0.48 0.48 0.0 0 0 194.86 258.67
  L 226.81 341.11
  A 0.74 0.73 -10.3 0 0 227.50 341.58
  L 236.02 341.58
  A 0.58 0.58 0.0 0 1 236.60 342.16
  L 236.60 353.71
  A 0.37 0.36 -90.0 0 1 236.24 354.08
  L 196.84 354.08
  A 0.52 0.52 0.0 0 1 196.32 353.56
  L 196.32 342.59
  A 0.55 0.55 0.0 0 0 195.77 342.04
  L 185.57 342.04
  A 0.49 0.49 0.0 0 0 185.08 342.53
  L 185.08 365.16
  A 0.29 0.29 0.0 0 0 185.37 365.45
  L 248.21 365.45
  A 0.49 0.48 -0.0 0 0 248.70 364.97
  L 248.70 330.90
  A 0.48 0.48 0.0 0 0 248.22 330.42
  L 235.00 330.42
  A 0.97 0.96 79.3 0 1 234.10 329.80
  L 211.69 269.84
  A 0.33 0.33 0.0 0 1 212.00 269.40
  L 218.27 269.40
  A 0.49 0.48 0.0 0 0 218.76 268.92
  L 218.76 235.08
  A 0.48 0.47 0.1 0 0 218.29 234.61
  Q 214.97 234.62 177.16 234.62
  Q 139.35 234.62 136.03 234.61
  A 0.48 0.47 -0.1 0 0 135.56 235.08
  L 135.56 268.92
  A 0.49 0.48 -0.0 0 0 136.05 269.40
  L 142.32 269.40
  A 0.33 0.33 0.0 0 1 142.63 269.84
  L 120.23 329.81
  A 0.97 0.96 -79.3 0 1 119.33 330.43
  L 106.11 330.43
  A 0.48 0.48 0.0 0 0 105.63 330.91
  L 105.63 364.98
  A 0.49 0.48 -0.0 0 0 106.12 365.46
  L 168.96 365.45
  A 0.29 0.29 0.0 0 0 169.25 365.16
  L 169.25 342.53
  A 0.49 0.49 0.0 0 0 168.76 342.04
  L 158.56 342.04
  A 0.55 0.55 0.0 0 0 158.01 342.59
  L 158.01 353.56
  A 0.52 0.52 0.0 0 1 157.49 354.08
  L 118.09 354.09
  A 0.37 0.36 90.0 0 1 117.73 353.72
  L 117.73 342.17
  A 0.58 0.58 0.0 0 1 118.31 341.59
  L 126.83 341.59
  A 0.74 0.73 10.3 0 0 127.52 341.12
  L 159.46 258.67
  A 0.48 0.48 0.0 0 0 159.01 258.01
  L 148.04 258.01
  A 0.62 0.62 0.0 0 1 147.42 257.39
  L 147.43 246.87
  A 0.70 0.70 0.0 0 1 148.05 246.18
  Q 148.46 246.13 177.16 246.13"
/>
<path stroke="#d58290" vector-effect="non-scaling-stroke" d="
  M 134.83 341.81
  A 0.11 0.11 0.0 0 0 134.87 342.03
  L 156.14 342.03
  A 0.27 0.27 0.0 0 0 156.32 341.56
  Q 154.15 339.65 155.17 336.89
  Q 155.89 334.94 162.22 318.61
  A 0.64 0.62 10.0 0 1 162.81 318.21
  L 192.17 318.21
  A 0.50 0.50 0.0 0 1 192.64 318.54
  Q 195.16 325.28 198.64 334.16
  C 199.93 337.44 201.16 339.12 198.41 341.53
  A 0.24 0.24 0.0 0 0 198.57 341.95
  L 218.93 341.95
  A 0.12 0.12 0.0 0 0 218.99 341.73
  L 216.83 340.57
  A 6.13 5.96 79.5 0 1 215.63 339.72
  Q 211.84 336.28 209.92 331.31
  Q 189.52 278.51 177.60 247.45
  A 0.58 0.58 0.0 0 0 176.52 247.45
  Q 157.94 295.99 145.35 328.84
  C 143.29 334.22 140.50 339.68 134.83 341.81"
/>
<path stroke="#d58290" vector-effect="non-scaling-stroke" d="
  M 165.77 308.69
  A 0.33 0.33 0.0 0 0 166.08 309.14
  L 188.25 309.18
  A 0.33 0.33 0.0 0 0 188.55 308.73
  L 177.52 280.13
  A 0.33 0.33 0.0 0 0 176.91 280.13
  L 165.77 308.69"
/>
</g>
<path fill="#ffffff" d="
  M 177.13 229.00
  Q 220.20 229.00 223.56 229.12
  A 0.60 0.60 0.0 0 1 224.14 229.72
  L 224.14 274.47
  A 0.63 0.63 0.0 0 1 223.51 275.10
  L 220.08 275.10
  A 0.42 0.41 -10.2 0 0 219.69 275.66
  L 237.96 324.54
  A 0.56 0.54 -9.7 0 0 238.48 324.90
  L 253.73 324.90
  A 0.39 0.38 -0.0 0 1 254.12 325.28
  L 254.12 370.58
  A 0.41 0.41 0.0 0 1 253.71 370.99
  Q 252.73 371.00 177.13 371.00
  Q 101.52 371.00 100.54 370.99
  A 0.41 0.41 0.0 0 1 100.13 370.58
  L 100.13 325.28
  A 0.39 0.38 0.0 0 1 100.52 324.90
  L 115.77 324.90
  A 0.56 0.54 9.7 0 0 116.29 324.54
  L 134.56 275.66
  A 0.42 0.41 10.2 0 0 134.17 275.10
  L 130.74 275.10
  A 0.63 0.63 0.0 0 1 130.11 274.47
  L 130.11 229.72
  A 0.60 0.60 0.0 0 1 130.69 229.12
  Q 134.06 229.00 177.13 229.00
  Z
  M 177.16 246.13
  Q 205.86 246.13 206.27 246.17
  A 0.70 0.70 0.0 0 1 206.89 246.87
  L 206.90 257.39
  A 0.62 0.62 0.0 0 1 206.28 258.01
  L 195.31 258.01
  A 0.48 0.48 0.0 0 0 194.86 258.67
  L 226.81 341.11
  A 0.74 0.73 -10.3 0 0 227.50 341.58
  L 236.02 341.58
  A 0.58 0.58 0.0 0 1 236.60 342.16
  L 236.60 353.71
  A 0.37 0.36 -90.0 0 1 236.24 354.08
  L 196.84 354.08
  A 0.52 0.52 0.0 0 1 196.32 353.56
  L 196.32 342.59
  A 0.55 0.55 0.0 0 0 195.77 342.04
  L 185.57 342.04
  A 0.49 0.49 0.0 0 0 185.08 342.53
  L 185.08 365.16
  A 0.29 0.29 0.0 0 0 185.37 365.45
  L 248.21 365.45
  A 0.49 0.48 -0.0 0 0 248.70 364.97
  L 248.70 330.90
  A 0.48 0.48 0.0 0 0 248.22 330.42
  L 235.00 330.42
  A 0.97 0.96 79.3 0 1 234.10 329.80
  L 211.69 269.84
  A 0.33 0.33 0.0 0 1 212.00 269.40
  L 218.27 269.40
  A 0.49 0.48 0.0 0 0 218.76 268.92
  L 218.76 235.08
  A 0.48 0.47 0.1 0 0 218.29 234.61
  Q 214.97 234.62 177.16 234.62
  Q 139.35 234.62 136.03 234.61
  A 0.48 0.47 -0.1 0 0 135.56 235.08
  L 135.56 268.92
  A 0.49 0.48 -0.0 0 0 136.05 269.40
  L 142.32 269.40
  A 0.33 0.33 0.0 0 1 142.63 269.84
  L 120.23 329.81
  A 0.97 0.96 -79.3 0 1 119.33 330.43
  L 106.11 330.43
  A 0.48 0.48 0.0 0 0 105.63 330.91
  L 105.63 364.98
  A 0.49 0.48 -0.0 0 0 106.12 365.46
  L 168.96 365.45
  A 0.29 0.29 0.0 0 0 169.25 365.16
  L 169.25 342.53
  A 0.49 0.49 0.0 0 0 168.76 342.04
  L 158.56 342.04
  A 0.55 0.55 0.0 0 0 158.01 342.59
  L 158.01 353.56
  A 0.52 0.52 0.0 0 1 157.49 354.08
  L 118.09 354.09
  A 0.37 0.36 90.0 0 1 117.73 353.72
  L 117.73 342.17
  A 0.58 0.58 0.0 0 1 118.31 341.59
  L 126.83 341.59
  A 0.74 0.73 10.3 0 0 127.52 341.12
  L 159.46 258.67
  A 0.48 0.48 0.0 0 0 159.01 258.01
  L 148.04 258.01
  A 0.62 0.62 0.0 0 1 147.42 257.39
  L 147.43 246.87
  A 0.70 0.70 0.0 0 1 148.05 246.18
  Q 148.46 246.13 177.16 246.13
  Z
  M 134.83 341.81
  A 0.11 0.11 0.0 0 0 134.87 342.03
  L 156.14 342.03
  A 0.27 0.27 0.0 0 0 156.32 341.56
  Q 154.15 339.65 155.17 336.89
  Q 155.89 334.94 162.22 318.61
  A 0.64 0.62 10.0 0 1 162.81 318.21
  L 192.17 318.21
  A 0.50 0.50 0.0 0 1 192.64 318.54
  Q 195.16 325.28 198.64 334.16
  C 199.93 337.44 201.16 339.12 198.41 341.53
  A 0.24 0.24 0.0 0 0 198.57 341.95
  L 218.93 341.95
  A 0.12 0.12 0.0 0 0 218.99 341.73
  L 216.83 340.57
  A 6.13 5.96 79.5 0 1 215.63 339.72
  Q 211.84 336.28 209.92 331.31
  Q 189.52 278.51 177.60 247.45
  A 0.58 0.58 0.0 0 0 176.52 247.45
  Q 157.94 295.99 145.35 328.84
  C 143.29 334.22 140.50 339.68 134.83 341.81
  Z"
/>
<path fill="#0c234b" d="
  M 177.16 234.62
  Q 214.97 234.62 218.29 234.61
  A 0.48 0.47 0.1 0 1 218.76 235.08
  L 218.76 268.92
  A 0.49 0.48 -0.0 0 1 218.27 269.40
  L 212.00 269.40
  A 0.33 0.33 0.0 0 0 211.69 269.84
  L 234.10 329.80
  A 0.97 0.96 79.3 0 0 235.00 330.42
  L 248.22 330.42
  A 0.48 0.48 0.0 0 1 248.70 330.90
  L 248.70 364.97
  A 0.49 0.48 0.0 0 1 248.21 365.45
  L 185.37 365.45
  A 0.29 0.29 0.0 0 1 185.08 365.16
  L 185.08 342.53
  A 0.49 0.49 0.0 0 1 185.57 342.04
  L 195.77 342.04
  A 0.55 0.55 0.0 0 1 196.32 342.59
  L 196.32 353.56
  A 0.52 0.52 0.0 0 0 196.84 354.08
  L 236.24 354.08
  A 0.37 0.36 -90.0 0 0 236.60 353.71
  L 236.60 342.16
  A 0.58 0.58 0.0 0 0 236.02 341.58
  L 227.50 341.58
  A 0.74 0.73 -10.3 0 1 226.81 341.11
  L 194.86 258.67
  A 0.48 0.48 0.0 0 1 195.31 258.01
  L 206.28 258.01
  A 0.62 0.62 0.0 0 0 206.90 257.39
  L 206.89 246.87
  A 0.70 0.70 0.0 0 0 206.27 246.17
  Q 205.86 246.13 177.16 246.13
  Q 148.46 246.13 148.05 246.18
  A 0.70 0.70 0.0 0 0 147.43 246.87
  L 147.42 257.39
  A 0.62 0.62 0.0 0 0 148.04 258.01
  L 159.01 258.01
  A 0.48 0.48 0.0 0 1 159.46 258.67
  L 127.52 341.12
  A 0.74 0.73 10.3 0 1 126.83 341.59
  L 118.31 341.59
  A 0.58 0.58 0.0 0 0 117.73 342.17
  L 117.73 353.72
  A 0.37 0.36 90.0 0 0 118.09 354.09
  L 157.49 354.08
  A 0.52 0.52 0.0 0 0 158.01 353.56
  L 158.01 342.59
  A 0.55 0.55 0.0 0 1 158.56 342.04
  L 168.76 342.04
  A 0.49 0.49 0.0 0 1 169.25 342.53
  L 169.25 365.16
  A 0.29 0.29 0.0 0 1 168.96 365.45
  L 106.12 365.46
  A 0.49 0.48 -0.0 0 1 105.63 364.98
  L 105.63 330.91
  A 0.48 0.48 0.0 0 1 106.11 330.43
  L 119.33 330.43
  A 0.97 0.96 -79.3 0 0 120.23 329.81
  L 142.63 269.84
  A 0.33 0.33 0.0 0 0 142.32 269.40
  L 136.05 269.40
  A 0.49 0.48 -0.0 0 1 135.56 268.92
  L 135.56 235.08
  A 0.48 0.47 -0.1 0 1 136.03 234.61
  Q 139.35 234.62 177.16 234.62
  Z"
/>
<path fill="#ab0520" d="
  M 134.83 341.81
  C 140.50 339.68 143.29 334.22 145.35 328.84
  Q 157.94 295.99 176.52 247.45
  A 0.58 0.58 0.0 0 1 177.60 247.45
  Q 189.52 278.51 209.92 331.31
  Q 211.84 336.28 215.63 339.72
  A 6.13 5.96 79.5 0 0 216.83 340.57
  L 218.99 341.73
  A 0.12 0.12 0.0 0 1 218.93 341.95
  L 198.57 341.95
  A 0.24 0.24 0.0 0 1 198.41 341.53
  C 201.16 339.12 199.93 337.44 198.64 334.16
  Q 195.16 325.28 192.64 318.54
  A 0.50 0.50 0.0 0 0 192.17 318.21
  L 162.81 318.21
  A 0.64 0.62 10.0 0 0 162.22 318.61
  Q 155.89 334.94 155.17 336.89
  Q 154.15 339.65 156.32 341.56
  A 0.27 0.27 0.0 0 1 156.14 342.03
  L 134.87 342.03
  A 0.11 0.11 0.0 0 1 134.83 341.81
  Z
  M 165.77 308.69
  A 0.33 0.33 0.0 0 0 166.08 309.14
  L 188.25 309.18
  A 0.33 0.33 0.0 0 0 188.55 308.73
  L 177.52 280.13
  A 0.33 0.33 0.0 0 0 176.91 280.13
  L 165.77 308.69
  Z"
/>
<path fill="#0c234b" d="
  M 251.71 259.40
  L 253.63 253.01
  A 0.41 0.41 0.0 0 1 254.02 252.72
  L 285.87 252.72
  A 0.27 0.26 -81.1 0 1 286.12 253.07
  L 284.21 259.45
  A 0.24 0.24 0.0 0 1 283.86 259.58
  Q 278.80 256.40 272.47 257.87
  A 0.33 0.32 84.7 0 0 272.21 258.19
  Q 271.92 286.92 271.91 287.85
  C 271.87 291.68 271.46 295.26 273.90 298.06
  A 0.38 0.38 0.0 0 1 273.61 298.69
  L 263.01 298.69
  A 0.37 0.37 0.0 0 1 262.73 298.08
  Q 264.76 295.74 264.78 293.23
  Q 264.94 276.45 264.86 258.40
  A 0.39 0.39 0.0 0 0 264.51 258.01
  Q 257.52 257.11 251.99 259.64
  A 0.20 0.20 0.0 0 1 251.71 259.40
  Z"
/>
<path fill="#0c234b" d="
  M 380.26 253.27
  A 0.24 0.24 0.0 0 1 380.43 252.87
  L 391.46 252.87
  A 0.24 0.23 -69.1 0 1 391.63 253.26
  Q 389.38 255.78 389.38 260.00
  Q 389.35 282.81 389.44 284.25
  C 389.66 288.21 390.02 291.57 393.53 293.50
  Q 398.17 296.06 404.56 294.06
  C 410.32 292.26 410.93 288.54 410.90 282.69
  Q 410.86 273.37 410.89 260.50
  Q 410.90 255.33 408.94 253.33
  A 0.28 0.27 67.5 0 1 409.13 252.86
  L 419.89 252.86
  A 0.30 0.30 0.0 0 1 420.12 253.35
  Q 418.02 255.98 418.06 260.97
  Q 418.09 264.39 418.13 293.24
  Q 418.13 295.72 420.17 297.97
  A 0.43 0.42 68.8 0 1 419.86 298.68
  L 412.02 298.68
  A 0.79 0.78 -0.0 0 1 411.23 297.90
  L 411.23 295.94
  A 0.37 0.37 0.0 0 0 410.64 295.64
  C 399.13 303.73 382.46 300.80 382.43 283.99
  Q 382.40 266.37 382.33 258.50
  Q 382.30 255.53 380.26 253.27
  Z"
/>
<path fill="#0c234b" d="
  M 590.25 291.24
  A 0.49 0.49 0.0 0 1 591.01 290.69
  C 596.06 294.40 605.09 297.26 610.52 293.01
  C 613.55 290.64 613.42 286.00 610.36 283.88
  C 606.04 280.89 600.77 279.03 596.26 275.73
  C 591.32 272.12 589.94 266.43 593.82 261.32
  C 598.15 255.62 609.40 256.19 615.86 257.60
  A 0.36 0.35 -84.0 0 1 616.14 257.95
  L 616.14 264.35
  A 0.16 0.16 0.0 0 1 615.89 264.48
  Q 607.87 259.09 600.61 262.13
  A 2.37 2.25 10.4 0 0 599.95 262.56
  Q 596.81 265.40 598.82 269.07
  Q 599.87 270.99 603.88 273.01
  C 610.74 276.47 619.97 279.48 619.08 288.06
  C 618.32 295.43 610.74 299.27 603.93 299.77
  Q 599.93 300.06 592.88 298.12
  A 0.75 0.73 87.4 0 1 592.38 297.65
  L 590.25 291.24
  Z"
/>
<path fill="#0c234b" d="
  M 487.69 257.59
  L 494.29 257.59
  A 0.60 0.59 -8.6 0 1 494.86 258.00
  L 505.56 290.20
  A 0.17 0.17 0.0 0 0 505.89 290.20
  Q 506.41 288.64 515.14 265.40
  Q 516.51 261.74 514.28 258.37
  A 0.36 0.36 0.0 0 1 514.58 257.82
  L 522.39 257.82
  A 0.43 0.43 0.0 0 1 522.79 258.40
  L 506.97 299.41
  A 0.44 0.43 20.2 0 1 506.42 299.66
  C 502.51 298.31 500.65 294.27 499.30 290.48
  Q 497.89 286.54 490.91 265.86
  Q 489.46 261.57 487.39 258.13
  A 0.36 0.35 74.2 0 1 487.69 257.59
  Z"
/>
<path fill="#0c234b" d="
  M 641.01 263.62
  L 642.71 257.96
  A 0.51 0.51 0.0 0 1 643.20 257.60
  L 672.70 257.60
  A 1.05 1.04 -14.7 0 1 673.61 258.13
  L 683.34 274.98
  A 0.44 0.44 0.0 0 0 684.10 274.99
  Q 689.87 265.56 691.56 262.59
  Q 693.03 260.01 691.12 258.31
  A 0.29 0.29 0.0 0 1 691.31 257.80
  L 699.29 257.80
  A 0.27 0.27 0.0 0 1 699.52 258.21
  L 686.19 280.42
  A 0.90 0.89 -28.9 0 0 686.05 280.90
  Q 686.03 290.00 686.14 294.26
  Q 686.17 295.42 687.74 298.11
  A 0.38 0.38 0.0 0 1 687.41 298.69
  L 678.25 298.69
  A 0.38 0.38 0.0 0 1 677.94 298.09
  Q 679.67 295.71 679.75 293.52
  Q 679.92 289.06 679.80 280.74
  A 2.23 2.22 28.8 0 0 679.47 279.61
  Q 678.95 278.76 670.02 264.04
  C 668.64 261.77 661.99 262.21 659.63 262.34
  A 0.56 0.56 0.0 0 0 659.10 262.90
  Q 659.11 278.80 659.13 293.75
  Q 659.13 295.69 660.87 298.41
  A 0.33 0.33 0.0 0 1 660.59 298.92
  L 651.28 298.92
  A 0.32 0.32 0.0 0 1 651.01 298.44
  Q 652.82 295.43 652.83 293.99
  Q 652.90 280.43 652.85 262.58
  A 0.20 0.19 -82.3 0 0 652.71 262.39
  Q 648.63 261.12 641.18 263.78
  A 0.13 0.13 0.0 0 1 641.01 263.62
  Z"
/>
<path fill="#0c234b" d="
  M 307.34 274.16
  Q 317.04 274.16 317.55 274.15
  A 0.62 0.62 0.0 0 0 318.15 273.58
  Q 318.27 272.33 318.16 264.00
  Q 318.12 260.57 316.41 258.40
  A 0.36 0.36 0.0 0 1 316.69 257.82
  L 326.03 257.82
  A 0.28 0.28 0.0 0 1 326.24 258.29
  Q 324.34 260.48 324.35 264.99
  Q 324.37 277.30 324.40 293.24
  Q 324.40 295.89 326.28 298.12
  A 0.35 0.35 0.0 0 1 326.01 298.69
  L 316.59 298.69
  A 0.36 0.35 -74.2 0 1 316.29 298.15
  C 317.57 296.09 318.12 295.08 318.15 292.49
  Q 318.23 286.04 318.17 279.24
  A 0.38 0.37 -0.8 0 0 317.79 278.88
  Q 312.71 278.92 307.34 278.92
  Q 301.96 278.92 296.88 278.87
  A 0.38 0.37 0.8 0 0 296.50 279.23
  Q 296.44 286.03 296.51 292.48
  C 296.54 295.07 297.09 296.08 298.37 298.14
  A 0.36 0.35 74.2 0 1 298.07 298.68
  L 288.65 298.68
  A 0.35 0.35 0.0 0 1 288.38 298.11
  Q 290.26 295.88 290.26 293.23
  Q 290.30 277.29 290.33 264.98
  Q 290.35 260.47 288.45 258.28
  A 0.28 0.28 0.0 0 1 288.66 257.81
  L 298.00 257.81
  A 0.36 0.36 0.0 0 1 298.28 258.39
  Q 296.57 260.56 296.52 263.99
  Q 296.41 272.32 296.53 273.57
  A 0.62 0.62 0.0 0 0 297.13 274.14
  Q 297.64 274.15 307.34 274.16
  Z"
/>
<path fill="#0c234b" d="
  M 354.43 258.12
  L 354.43 263.45
  A 0.30 0.30 0.0 0 1 354.00 263.72
  Q 347.19 260.58 341.32 262.89
  A 0.45 0.43 79.3 0 0 341.05 263.30
  L 341.05 273.63
  A 0.55 0.55 0.0 0 0 341.60 274.18
  L 350.70 274.18
  A 0.37 0.36 -90.0 0 1 351.06 274.55
  L 351.06 279.55
  A 0.17 0.15 -80.3 0 1 350.85 279.71
  Q 347.22 278.40 341.79 278.80
  A 0.63 0.63 0.0 0 0 341.20 279.43
  L 341.20 292.69
  A 0.67 0.66 7.4 0 0 341.70 293.33
  Q 351.38 295.83 358.96 291.33
  A 0.44 0.44 0.0 0 1 359.59 291.87
  L 357.08 298.38
  A 0.74 0.73 10.3 0 1 356.39 298.85
  L 332.95 298.85
  A 0.28 0.27 20.9 0 1 332.74 298.39
  Q 334.80 296.12 334.79 292.50
  Q 334.77 283.11 334.79 265.74
  Q 334.79 259.90 332.90 258.35
  A 0.30 0.30 0.0 0 1 333.09 257.82
  L 354.13 257.82
  A 0.30 0.30 0.0 0 1 354.43 258.12
  Z"
/>
<path fill="#0c234b" d="
  M 458.72 288.15
  A 0.24 0.24 0.0 0 0 459.15 288.00
  Q 459.17 269.61 459.10 263.25
  Q 459.07 260.86 457.31 258.40
  A 0.38 0.38 0.0 0 1 457.62 257.79
  L 465.02 257.79
  A 0.31 0.31 0.0 0 1 465.24 258.32
  Q 463.28 260.24 463.28 264.49
  Q 463.28 270.22 463.30 298.73
  A 1.12 1.12 0.0 0 1 461.66 299.72
  Q 457.90 297.73 455.37 294.40
  Q 451.83 289.74 434.11 267.05
  A 0.20 0.20 0.0 0 0 433.76 267.17
  Q 433.71 279.83 433.74 291.02
  Q 433.75 296.57 435.45 298.06
  A 0.37 0.36 65.7 0 1 435.21 298.70
  L 427.65 298.70
  A 0.32 0.32 0.0 0 1 427.42 298.16
  Q 429.25 296.28 429.30 293.73
  Q 429.36 290.37 429.39 264.73
  Q 429.40 260.37 427.22 258.00
  A 0.11 0.11 0.0 0 1 427.30 257.81
  L 435.06 257.81
  A 0.37 0.37 0.0 0 1 435.34 257.94
  L 458.72 288.15
  Z"
/>
<path fill="#0c234b" d="
  M 481.06 278.22
  Q 481.06 291.08 481.06 292.58
  Q 481.06 295.94 482.81 298.11
  A 0.38 0.38 0.0 0 1 482.63 298.71
  Q 482.62 298.71 477.94 298.71
  Q 473.27 298.72 473.25 298.71
  A 0.38 0.38 0.0 0 1 473.08 298.12
  Q 474.82 295.95 474.81 292.58
  Q 474.81 291.08 474.80 278.23
  Q 474.79 265.37 474.79 263.87
  Q 474.79 260.51 473.05 258.34
  A 0.38 0.38 0.0 0 1 473.22 257.74
  Q 473.24 257.74 477.91 257.74
  Q 482.59 257.73 482.60 257.74
  A 0.38 0.38 0.0 0 1 482.78 258.33
  Q 481.04 260.50 481.04 263.87
  Q 481.05 265.37 481.06 278.22
  Z"
/>
<path fill="#0c234b" d="
  M 548.06 258.12
  L 548.06 263.44
  A 0.30 0.30 0.0 0 1 547.63 263.71
  Q 540.84 260.57 534.99 262.87
  A 0.45 0.43 79.3 0 0 534.72 263.28
  L 534.72 273.58
  A 0.55 0.55 0.0 0 0 535.26 274.12
  L 544.33 274.13
  A 0.37 0.36 -90.0 0 1 544.69 274.50
  L 544.69 279.48
  A 0.17 0.15 -80.3 0 1 544.48 279.64
  Q 540.86 278.33 535.45 278.73
  A 0.63 0.63 0.0 0 0 534.86 279.36
  L 534.86 292.57
  A 0.67 0.66 7.4 0 0 535.35 293.21
  Q 545.00 295.71 552.56 291.23
  A 0.44 0.44 0.0 0 1 553.18 291.76
  L 550.68 298.25
  A 0.74 0.73 10.4 0 1 549.99 298.72
  L 526.63 298.71
  A 0.28 0.27 20.9 0 1 526.42 298.25
  Q 528.48 295.99 528.47 292.38
  Q 528.45 283.02 528.48 265.71
  Q 528.48 259.89 526.60 258.34
  A 0.30 0.30 0.0 0 1 526.79 257.81
  L 547.76 257.83
  A 0.30 0.30 0.0 0 1 548.06 258.12
  Z"
/>
<path fill="#0c234b" d="
  M 566.38 298.67
  L 556.90 298.67
  A 0.14 0.14 0.0 0 1 556.78 298.45
  Q 558.71 295.87 558.70 291.85
  Q 558.67 266.15 558.65 263.77
  Q 558.63 260.25 556.76 258.35
  A 0.32 0.31 62.2 0 1 556.92 257.82
  Q 557.04 257.80 564.70 257.83
  C 570.75 257.85 576.76 257.15 581.25 262.01
  Q 583.16 264.07 583.38 267.30
  C 583.81 273.46 579.91 275.75 574.95 278.53
  A 0.48 0.47 -33.4 0 0 574.80 279.23
  Q 585.29 293.27 585.73 293.81
  C 587.04 295.42 588.47 296.59 589.69 297.88
  A 0.37 0.37 0.0 0 1 589.53 298.48
  Q 582.78 300.47 577.90 293.63
  Q 570.95 283.89 566.90 278.22
  A 0.52 0.51 -22.3 0 1 567.24 277.41
  C 571.14 276.79 576.27 274.46 576.76 270.08
  C 577.61 262.56 571.68 261.36 565.41 262.27
  A 0.69 0.69 0.0 0 0 564.83 262.95
  Q 564.91 271.15 564.93 291.02
  Q 564.93 296.39 566.63 298.06
  A 0.36 0.36 0.0 0 1 566.38 298.67
  Z"
/>
<path fill="#0c234b" d="
  M 633.84 278.22
  Q 633.85 291.04 633.84 292.53
  Q 633.84 295.89 635.58 298.05
  A 0.38 0.38 0.0 0 1 635.41 298.64
  Q 635.39 298.65 630.73 298.65
  Q 626.07 298.65 626.05 298.65
  A 0.38 0.38 0.0 0 1 625.88 298.06
  Q 627.62 295.89 627.61 292.53
  Q 627.61 291.04 627.60 278.22
  Q 627.60 265.40 627.60 263.91
  Q 627.60 260.56 625.86 258.39
  A 0.38 0.38 0.0 0 1 626.04 257.80
  Q 626.05 257.79 630.71 257.79
  Q 635.37 257.79 635.39 257.80
  A 0.38 0.38 0.0 0 1 635.56 258.39
  Q 633.83 260.55 633.83 263.91
  Q 633.83 265.40 633.84 278.22
  Z"
/>
<path fill="#ffffff" d="
  M 165.77 308.69
  L 176.91 280.13
  A 0.33 0.33 0.0 0 1 177.52 280.13
  L 188.55 308.73
  A 0.33 0.33 0.0 0 1 188.25 309.18
  L 166.08 309.14
  A 0.33 0.33 0.0 0 1 165.77 308.69
  Z"
/>
<path fill="#0c234b" d="
  M 418.40 364.96
  Q 420.94 363.93 419.62 360.91
  Q 419.29 360.17 415.28 349.39
  A 0.89 0.89 0.0 0 0 414.45 348.82
  L 398.68 348.82
  A 0.91 0.91 0.0 0 0 397.82 349.44
  Q 396.97 351.96 395.00 357.49
  C 394.12 359.96 392.47 363.42 395.18 364.74
  A 0.37 0.37 0.0 0 1 395.02 365.44
  L 384.45 365.44
  A 0.23 0.23 0.0 0 1 384.34 365.01
  Q 387.26 363.33 388.52 360.04
  Q 391.66 351.86 407.07 313.02
  A 0.37 0.37 0.0 0 1 407.75 313.02
  Q 420.49 344.88 426.40 359.61
  Q 427.68 362.79 430.73 364.95
  A 0.27 0.27 0.0 0 1 430.57 365.44
  L 418.49 365.44
  A 0.25 0.25 0.0 0 1 418.40 364.96
  Z
  M 399.96 343.38
  A 0.31 0.31 0.0 0 0 400.25 343.80
  L 412.53 343.93
  A 0.31 0.31 0.0 0 0 412.83 343.51
  L 406.85 327.47
  A 0.31 0.31 0.0 0 0 406.27 327.47
  L 399.96 343.38
  Z"
/>
<path fill="#0c234b" d="
  M 343.4152 340.2469
  A 22.35 21.59 -12.2 0 1 326.1325 366.0724
  A 22.35 21.59 -12.2 0 1 299.7248 349.6931
  A 22.35 21.59 -12.2 0 1 317.0075 323.8676
  A 22.35 21.59 -12.2 0 1 343.4152 340.2469
  Z
  M 320.8297 327.6985
  A 17.20 15.39 -91.8 0 0 305.9876 345.3734
  A 17.20 15.39 -91.8 0 0 321.9103 362.0815
  A 17.20 15.39 -91.8 0 0 336.7524 344.4066
  A 17.20 15.39 -91.8 0 0 320.8297 327.6985
  Z"
/>
<path fill="#0c234b" d="
  M 566.8372 339.9523
  A 22.35 21.59 -13.0 0 1 549.9167 366.0166
  A 22.35 21.59 -13.0 0 1 523.2828 350.0077
  A 22.35 21.59 -13.0 0 1 540.2033 323.9434
  A 22.35 21.59 -13.0 0 1 566.8372 339.9523
  Z
  M 544.4598 327.6951
  A 17.20 15.38 -91.4 0 0 529.5046 345.2658
  A 17.20 15.38 -91.4 0 0 545.3002 362.0849
  A 17.20 15.38 -91.4 0 0 560.2554 344.5142
  A 17.20 15.38 -91.4 0 0 544.4598 327.6951
  Z"
/>
<path fill="#0c234b" d="
  M 640.14 364.75
  C 641.50 363.50 641.79 362.71 641.10 360.82
  Q 638.91 354.84 637.41 350.61
  A 0.73 0.73 0.0 0 0 636.72 350.12
  L 622.52 350.12
  A 0.63 0.61 7.2 0 0 621.92 350.57
  Q 621.57 351.80 618.48 360.83
  Q 617.60 363.42 619.44 364.94
  A 0.28 0.28 0.0 0 1 619.26 365.43
  L 611.07 365.43
  A 0.29 0.29 0.0 0 1 610.87 364.92
  Q 612.72 363.19 613.75 360.50
  Q 621.85 339.53 626.18 328.15
  Q 626.56 327.16 625.65 324.78
  A 0.41 0.41 0.0 0 1 626.03 324.22
  L 633.27 324.22
  A 1.04 1.02 79.7 0 1 634.23 324.90
  Q 644.13 351.49 646.45 357.79
  Q 648.16 362.41 650.66 364.79
  A 0.31 0.31 0.0 0 1 650.45 365.32
  L 640.36 365.32
  A 0.33 0.33 0.0 0 1 640.14 364.75
  Z
  M 624.45 345.57
  A 0.33 0.33 0.0 0 0 624.75 346.02
  L 635.64 346.17
  A 0.33 0.33 0.0 0 0 635.96 345.73
  L 630.71 331.13
  A 0.33 0.33 0.0 0 0 630.10 331.12
  L 624.45 345.57
  Z"
/>
<path fill="#0c234b" d="
  M 477.50 324.46
  Q 482.16 324.46 482.18 324.46
  A 0.38 0.38 0.0 0 1 482.35 325.05
  Q 480.61 327.22 480.62 330.58
  Q 480.62 332.08 480.62 344.92
  Q 480.63 357.75 480.63 359.25
  Q 480.63 362.61 482.37 364.78
  A 0.38 0.38 0.0 0 1 482.19 365.37
  Q 482.18 365.37 477.51 365.37
  Q 472.84 365.38 472.83 365.37
  A 0.38 0.38 0.0 0 1 472.65 364.78
  Q 474.39 362.61 474.39 359.25
  Q 474.38 357.75 474.38 344.92
  Q 474.38 332.08 474.38 330.59
  Q 474.38 327.23 472.64 325.06
  A 0.38 0.38 0.0 0 1 472.81 324.47
  Q 472.83 324.46 477.50 324.46
  Z"
/>
<path fill="#0c234b" d="
  M 487.54 365.44
  A 0.27 0.27 0.0 0 1 487.31 365.03
  L 508.31 330.08
  A 0.31 0.31 0.0 0 0 508.11 329.62
  C 501.57 328.16 496.66 327.70 490.42 330.92
  A 0.19 0.19 0.0 0 1 490.16 330.69
  L 492.42 324.85
  A 0.70 0.69 -79.6 0 1 493.07 324.40
  L 518.27 324.40
  A 0.36 0.36 0.0 0 1 518.58 324.95
  L 497.76 359.61
  A 0.45 0.45 0.0 0 0 498.08 360.28
  C 505.66 361.38 514.06 361.72 521.04 358.03
  A 0.21 0.20 -3.7 0 1 521.33 358.28
  L 518.77 364.93
  A 0.81 0.80 10.7 0 1 518.02 365.44
  L 487.54 365.44
  Z"
/>
<path fill="#0c234b" d="
  M 602.34 354.85
  A 0.24 0.24 0.0 0 0 602.77 354.70
  Q 602.78 336.26 602.71 329.89
  Q 602.68 327.49 600.92 325.02
  A 0.39 0.38 72.0 0 1 601.23 324.41
  L 608.65 324.41
  A 0.31 0.31 0.0 0 1 608.87 324.94
  Q 606.90 326.87 606.90 331.13
  Q 606.91 336.87 606.93 365.46
  A 1.12 1.12 0.0 0 1 605.29 366.45
  Q 601.52 364.45 598.98 361.12
  Q 595.43 356.45 577.66 333.70
  A 0.20 0.20 0.0 0 0 577.31 333.82
  Q 577.26 346.51 577.29 357.73
  Q 577.30 363.29 579.01 364.79
  A 0.37 0.37 0.0 0 1 578.77 365.43
  L 571.19 365.43
  A 0.32 0.32 0.0 0 1 570.96 364.89
  Q 572.79 363.00 572.84 360.45
  Q 572.90 357.08 572.93 331.37
  Q 572.94 327.00 570.75 324.63
  A 0.11 0.11 0.0 0 1 570.83 324.44
  L 578.61 324.44
  A 0.37 0.37 0.0 0 1 578.89 324.57
  L 602.34 354.85
  Z"
/>
<path fill="#0c234b" d="
  M 368.72 330.61
  Q 363.55 327.66 356.37 329.57
  A 0.63 0.62 82.9 0 0 355.90 330.18
  L 355.90 340.62
  A 0.40 0.40 0.0 0 0 356.30 341.02
  L 365.40 341.02
  A 0.52 0.52 0.0 0 1 365.92 341.54
  L 365.92 346.29
  A 0.24 0.24 0.0 0 1 365.60 346.51
  Q 361.72 345.13 356.43 345.60
  A 0.61 0.60 -2.1 0 0 355.88 346.19
  Q 355.81 353.86 355.77 359.75
  Q 355.75 362.86 357.64 364.99
  A 0.27 0.27 0.0 0 1 357.44 365.44
  L 347.89 365.44
  A 0.33 0.32 -70.6 0 1 347.64 364.91
  Q 349.34 362.76 349.36 360.99
  Q 349.44 349.98 349.42 331.23
  Q 349.41 327.54 347.67 325.16
  A 0.33 0.33 0.0 0 1 347.94 324.64
  L 368.66 324.64
  A 0.62 0.62 0.0 0 1 369.28 325.26
  L 369.28 330.28
  A 0.38 0.37 -75.3 0 1 368.72 330.61
  Z"
/>
<path fill="#0c234b" d="
  M 444.79 364.85
  A 0.36 0.36 0.0 0 1 444.54 365.46
  L 435.06 365.46
  A 0.14 0.14 0.0 0 1 434.94 365.24
  Q 436.87 362.67 436.86 358.65
  Q 436.82 332.96 436.80 330.58
  Q 436.78 327.06 434.91 325.17
  A 0.32 0.31 62.2 0 1 435.07 324.64
  Q 435.19 324.62 442.85 324.64
  C 448.90 324.66 454.90 323.96 459.39 328.82
  Q 461.30 330.88 461.52 334.10
  C 461.95 340.26 458.06 342.55 453.10 345.33
  A 0.48 0.47 -33.4 0 0 452.95 346.03
  Q 463.44 360.06 463.88 360.60
  C 465.19 362.21 466.62 363.38 467.84 364.67
  A 0.37 0.37 0.0 0 1 467.68 365.27
  Q 460.93 367.26 456.05 360.42
  Q 449.10 350.69 445.05 345.02
  A 0.52 0.51 -22.3 0 1 445.39 344.21
  C 449.29 343.59 454.42 341.26 454.91 336.88
  C 455.75 329.37 449.83 328.17 443.56 329.08
  A 0.69 0.68 85.6 0 0 442.98 329.76
  Q 443.06 337.96 443.09 357.82
  Q 443.09 363.18 444.79 364.85
  Z"
/>
</svg>
